#N canvas 562 39 610 482 10;
#X text 10 38 for use with pix_freenect or pix_openni;
#X obj 14 349 pix_texture;
#X obj 319 293 gemwin;
#N canvas 733 105 450 300 freenect 1;
#X obj 24 44 gemhead 1;
#X obj 24 98 pix_freenect 0 1 1 0;
#X obj 141 71 gemhead 1;
#X obj 43 139 outlet;
#X obj -6 139 outlet;
#N canvas 0 22 364 224 init_trick 0;
#X obj 131 39 route 1;
#X obj 131 9 route gem_state;
#X obj 131 69 delay 500;
#X msg 131 103 accel;
#X obj 91 133 outlet;
#X obj 91 -15 inlet;
#X text 22 179 trigger the accelerometer output to start streaming
;
#X text 24 162 a little trick to start the streams;
#X connect 0 0 2 0;
#X connect 1 0 0 0;
#X connect 2 0 3 0;
#X connect 3 0 4 0;
#X connect 5 0 1 0;
#X connect 5 0 4 0;
#X restore 24 69 pd init_trick;
#X obj 251 13 loadbang;
#X msg 251 66 depth_mode 1;
#X text 335 66 mm aligned;
#X obj 40 40 tgl 15 0 empty empty empty 17 7 0 10 -262144 -1 -1 0 1
;
#X connect 0 0 5 0;
#X connect 1 0 4 0;
#X connect 1 1 3 0;
#X connect 2 0 1 1;
#X connect 5 0 1 0;
#X connect 6 0 7 0;
#X connect 7 0 1 0;
#X restore 14 110 pd freenect;
#X floatatom 401 127 5 0 0 0 max_value(m) - -;
#X floatatom 268 131 5 0 0 0 min_value(m) - -;
#X obj 401 152 * 1000;
#X obj 268 149 * 1000;
#X obj 120 162 tgl 15 0 empty empty whitening 17 7 0 10 -262144 -1
-1 0 1;
#X obj 14 302 pix_multiply;
#X obj 164 337 pix_texture;
#X obj 83 273 t a a;
#X obj 14 393 alpha;
#X obj 26 374 tgl 15 0 empty empty empty 17 7 0 10 -262144 -1 -1 0
1;
#X obj 164 375 alpha;
#X obj 176 356 tgl 15 0 empty empty empty 17 7 0 10 -262144 -1 -1 0
1;
#N canvas 10 25 521 315 filter 0;
#X obj 80 34 inlet;
#X obj 84 209 outlet;
#X obj 101 109 cnv 15 155 80 empty empty empty 20 12 0 14 -24198 -66577
0;
#X floatatom 114 148 3 0 1 2 fb0 - -;
#X floatatom 141 148 3 0 1 2 fb1 - -;
#X floatatom 167 148 3 0 1 2 fb2 - -;
#X floatatom 204 148 3 0 1 2 ff0 - -;
#X obj 101 168 pix_tIIR 2 1;
#X floatatom 231 148 3 0 1 2 ff1 - -;
#N canvas 0 22 450 300 init 0;
#X msg 175 214 0.3;
#X msg 277 215 0.4;
#X obj 104 258 outlet;
#X obj 154 258 outlet;
#X obj 204 258 outlet;
#X obj 254 258 outlet;
#X obj 304 258 outlet;
#X obj 244 59 inlet;
#X obj 338 158 t b;
#X msg 328 201 1;
#X msg 363 201 0;
#X obj 238 127 t b;
#X obj 246 88 route 1;
#X msg 247 215 1;
#X msg 140 215 0.4;
#X msg 104 214 0.3;
#X connect 0 0 4 0;
#X connect 1 0 6 0;
#X connect 7 0 12 0;
#X connect 8 0 9 0;
#X connect 8 0 10 0;
#X connect 9 0 2 0;
#X connect 9 0 5 0;
#X connect 10 0 3 0;
#X connect 10 0 4 0;
#X connect 10 0 6 0;
#X connect 11 0 15 0;
#X connect 11 0 14 0;
#X connect 11 0 0 0;
#X connect 11 0 13 0;
#X connect 11 0 1 0;
#X connect 12 0 11 0;
#X connect 12 1 8 0;
#X connect 13 0 5 0;
#X connect 14 0 3 0;
#X connect 15 0 2 0;
#X restore 260 131 pd init;
#X obj 260 114 tgl 15 0 empty empty empty 0 -6 0 8 -262144 -1 -1 0
1;
#X msg 127 112 set;
#X msg 167 113 set 0;
#X floatatom 434 118 5 0 100 0 blur - -;
#X obj 341 154 pix_motionblur;
#X obj 434 135 / 100;
#X obj 354 21 inlet;
#X obj 341 229 outlet;
#X connect 0 0 7 0;
#X connect 3 0 7 1;
#X connect 4 0 7 2;
#X connect 5 0 7 3;
#X connect 6 0 7 4;
#X connect 7 0 1 0;
#X connect 8 0 7 5;
#X connect 9 0 3 0;
#X connect 9 1 4 0;
#X connect 9 2 5 0;
#X connect 9 3 6 0;
#X connect 9 4 8 0;
#X connect 10 0 9 0;
#X connect 11 0 7 0;
#X connect 12 0 7 0;
#X connect 13 0 15 0;
#X connect 14 0 17 0;
#X connect 15 0 14 1;
#X connect 16 0 14 0;
#X restore 83 233 pd filter;
#X msg 274 247 destroy;
#X msg 319 223 dimen 640 240 \, create \, 1;
#X obj 310 384 * 4;
#X obj 357 385 * 3;
#X floatatom 328 361 5 0 0 0 - - -;
#X obj 164 418 rectangle 5.32 3.99;
#X obj 14 435 rectangle 5.32 3.99;
#X floatatom 51 380 5 0 0 0 - - -;
#X obj 14 413 translateXYZ -5.3 0 0;
#X obj 164 397 translateXYZ 5.3 0 0;
#X msg 360 263 color 1 0 0;
#X text 296 110 distance;
#X msg 381 289 dimen 1280 480 \, create \, 1;
#N canvas 0 22 464 262 trim_x_y 0;
#X obj 129 220 outlet;
#X msg 54 175 trim \$1;
#X obj 54 155 tgl 15 0 empty empty ON/OFF 17 7 0 10 -262144 -1 -1 0
1;
#X obj 129 115 nbx 5 14 -1e+37 1e+37 0 0 empty empty empty 0 -8 0 10
-262144 -1 -1 0 256;
#X obj 129 137 * 1000;
#X obj 199 115 nbx 5 14 -1e+37 1e+37 0 0 empty empty empty 0 -8 0 10
-262144 -1 -1 0 256;
#X obj 199 137 * 1000;
#X obj 279 115 nbx 5 14 -1e+37 1e+37 0 0 empty empty empty 0 -8 0 10
-262144 -1 -1 0 256;
#X msg 279 161 y_min \$1;
#X obj 279 137 * 1000;
#X obj 349 115 nbx 5 14 -1e+37 1e+37 0 0 empty empty empty 0 -8 0 10
-262144 -1 -1 0 256;
#X obj 349 137 * 1000;
#X msg 349 161 y_max \$1;
#X msg 129 161 x_min \$1;
#X msg 199 161 x_max \$1;
#X text 64 76 camera is in the center (0 \, 0 \, 0);
#X text 66 112 in meters;
#X text 130 97 left;
#X text 199 97 right;
#X text 279 97 bottom;
#X text 351 96 top;
#X text 63 30 additionally you can trim the depthmap according to real
world x and y coordinates;
#X connect 1 0 0 0;
#X connect 2 0 1 0;
#X connect 3 0 4 0;
#X connect 4 0 13 0;
#X connect 5 0 6 0;
#X connect 6 0 14 0;
#X connect 7 0 9 0;
#X connect 8 0 0 0;
#X connect 9 0 8 0;
#X connect 10 0 11 0;
#X connect 11 0 12 0;
#X connect 12 0 0 0;
#X connect 13 0 0 0;
#X connect 14 0 0 0;
#X restore 102 127 pd trim_x_y;
#X text 10 7 extract part of image in certain distance (distance coded
into r and g color channel);
#X msg 95 94 invert \$1;
#X obj 95 74 tgl 15 0 empty empty empty 17 7 0 10 -262144 -1 -1 0 1
;
#X text 115 74 invert color/alpha channel;
#X obj 288 57 tgl 15 0 empty empty empty 17 7 0 10 -262144 -1 -1 0
1;
#X msg 288 77 usercoloring \$1;
#X text 308 57 let users pass (with pix_openni blue channel);
#X obj 24 155 tgl 15 0 empty empty active 17 7 0 10 -262144 -1 -1 0
1;
#X obj 83 196 pix_threshold_depth 10 3000;
#X text 262 196 creation arguments: min_z \, max_z in [mm];
#X connect 1 0 12 0;
#X connect 3 0 9 0;
#X connect 3 1 39 0;
#X connect 4 0 6 0;
#X connect 5 0 7 0;
#X connect 6 0 39 3;
#X connect 7 0 39 2;
#X connect 8 0 39 1;
#X connect 9 0 1 0;
#X connect 10 0 14 0;
#X connect 11 0 9 1;
#X connect 11 1 10 0;
#X connect 12 0 25 0;
#X connect 13 0 12 0;
#X connect 14 0 26 0;
#X connect 15 0 14 0;
#X connect 16 0 11 0;
#X connect 17 0 2 0;
#X connect 18 0 2 0;
#X connect 19 0 22 1;
#X connect 20 0 22 2;
#X connect 21 0 19 0;
#X connect 21 0 20 0;
#X connect 24 0 25 1;
#X connect 25 0 23 0;
#X connect 26 0 22 0;
#X connect 27 0 2 0;
#X connect 29 0 2 0;
#X connect 30 0 39 0;
#X connect 32 0 39 0;
#X connect 33 0 32 0;
#X connect 35 0 36 0;
#X connect 36 0 39 0;
#X connect 38 0 39 0;
#X connect 39 0 16 0;
